<?xml version="1.0" standalone="no"?>
<!DOCTYPE svg PUBLIC "-//W3C//DTD SVG 1.1//EN" "http://www.w3.org/Graphics/SVG/1.1/DTD/svg11.dtd" >
<!--
2013-9-30: Created.
-->
<svg>
<metadata>
Created by iconfont
</metadata>
<defs>

<font id="iconfont" horiz-adv-x="1024" >
  <font-face
    font-family="iconfont"
    font-weight="500"
    font-stretch="normal"
    units-per-em="1024"
    ascent="896"
    descent="-128"
  />
    <missing-glyph />
    
    <glyph glyph-name="x" unicode="x" horiz-adv-x="1001"
d="M281 543q-27 -1 -53 -1h-83q-18 0 -36.5 -6t-32.5 -18.5t-23 -32t-9 -45.5v-76h912v41q0 16 -0.5 30t-0.5 18q0 13 -5 29t-17 29.5t-31.5 22.5t-49.5 9h-133v-97h-438v97zM955 310v-52q0 -23 0.5 -52t0.5 -58t-10.5 -47.5t-26 -30t-33 -16t-31.5 -4.5q-14 -1 -29.5 -0.5
t-29.5 0.5h-32l-45 128h-439l-44 -128h-29h-34q-20 0 -45 1q-25 0 -41 9.5t-25.5 23t-13.5 29.5t-4 30v167h911zM163 247q-12 0 -21 -8.5t-9 -21.5t9 -21.5t21 -8.5q13 0 22 8.5t9 21.5t-9 21.5t-22 8.5zM316 123q-8 -26 -14 -48q-5 -19 -10.5 -37t-7.5 -25t-3 -15t1 -14.5
t9.5 -10.5t21.5 -4h37h67h81h80h64h36q23 0 34 12t2 38q-5 13 -9.5 30.5t-9.5 34.5q-5 19 -11 39h-368zM336 498v228q0 11 2.5 23t10 21.5t20.5 15.5t34 6h188q31 0 51.5 -14.5t20.5 -52.5v-227h-327z" />
    

    
    <glyph glyph-name="yonghuzhinan" unicode="&#58930;" d="M512 896C229.7 896 0 666.3 0 384s229.7-512 512-512 512 229.7 512 512S794.3 896 512 896z m0-970.1C259.4-74.10000000000002 53.9 131.39999999999998 53.9 384S259.4 842.1 512 842.1c252.6 0 458.1-205.5 458.1-458.1S764.6-74.10000000000002 512-74.10000000000002z m0 0M762.6 662.2c-1.6 0-3.3-0.4-4.9-1.2l-348-180.1L235 122c-3.8-7.9 2.2-16.2 9.6-16.2 1.6 0 3.3 0.4 4.9 1.2l348 180.2 174.7 358.9c3.8 7.8-2.2 16.1-9.6 16.1zM438.5 416.8l102.9-98L340 214.60000000000002l98.5 202.2zM574 362.20000000000005l-97.4 92.6L667 553.4l-93-191.2z m0 0"  horiz-adv-x="1024" />

    
    <glyph glyph-name="hzl_login" unicode="&#58933;" d="M512 896C229.2 896 0 666.8 0 384s229.2-512 512-512 512 229.2 512 512S794.8 896 512 896z m0-972.8C257.9-76.8 51.2 129.9 51.2 384S257.9 844.8 512 844.8 972.8 638.1 972.8 384 766.1-76.8 512-76.8zM512 438.3c-77.6 0-140.8 63.2-140.8 140.8S434.4 719.9 512 719.9c77.6 0 140.8-63.2 140.8-140.8 0-16.2-2.7-32-8-47-4.7-13.3 2.3-28 15.6-32.7 13.4-4.7 28 2.3 32.7 15.6 7.3 20.6 11 42.1 11 64.1 0 105.9-86.1 192-192 192s-192-86.1-192-192 86.1-192 192-192c162.3 0 294.4-132.1 294.4-294.4 0-14.1 11.4-25.6 25.6-25.6s25.6 11.5 25.6 25.6c-0.1 190.6-155.1 345.6-345.7 345.6zM310.4 373.5c-90.2-64.8-144-169.8-144-280.7 0-14.1 11.5-25.6 25.6-25.6s25.6 11.5 25.6 25.6c0 94.5 45.9 183.9 122.7 239.2 11.5 8.3 14.1 24.3 5.8 35.7-8.3 11.4-24.2 14-35.7 5.8z"  horiz-adv-x="1024" />

    
    <glyph glyph-name="hzl_inform" unicode="&#58934;" d="M585.1 833.4c-30.6 18.8-69 19.2-105.4 0.8-2-1-3.9-2.2-5.7-3.6l-269.4-216H89.4c-49.3 0-89.4-41.2-89.4-92v-277.3c0-50.7 40.1-92 89.4-92h52.2c17.7 0 32 14.3 32 32s-14.3 32-32 32H89.4c-14 0-25.4 12.6-25.4 28V522.7c0 15.4 11.4 28 25.4 28h126.5c7.3 0 14.3 2.5 20 7L511.3 778.4c15.4 6.9 29.6 7.2 40.4 0.5 15.1-9.3 24.1-32 24.1-60.8v-668.3c0-28.7-9-51.4-24.1-60.8-10.6-6.5-24.5-6.4-39.5 0.2L289.3 190.9c-13.1 11.9-33.3 10.9-45.2-2.2-11.9-13.1-10.9-33.3 2.2-45.2l226.2-204.8c2.1-1.9 4.5-3.6 7.1-4.9 17.9-9 36.4-13.5 54.1-13.5 18.3 0 35.8 4.8 51.3 14.4 34.6 21.4 54.5 63.4 54.5 115.2V718.1c0.1 51.9-19.7 93.9-54.4 115.3zM991.9 403.3H768.1c-17.6 0-32-14.4-32-32s14.4-32 32-32h223.9c17.6 0 32 14.4 32 32-0.1 17.6-14.5 32-32.1 32zM748.5 540.6l158.3 158.3c12.4 12.4 12.4 32.8 0 45.2-12.4 12.4-32.8 12.4-45.2 0L703.3 585.8c-12.4-12.4-12.4-32.8 0-45.2 12.4-12.5 32.7-12.5 45.2 0zM748.5 202.1c-12.4 12.4-32.8 12.4-45.2 0-12.4-12.4-12.4-32.8 0-45.2l158.3-158.3c12.4-12.4 32.8-12.4 45.2 0 12.4 12.4 12.4 32.8 0 45.2L748.5 202.1z"  horiz-adv-x="1024" />

    
    <glyph glyph-name="hzl_approve" unicode="&#58935;" d="M808.5 252.6c12.5-11.4 31.9-10.6 43.4 1.9s10.6 31.9-1.9 43.4c-70.7 64.7-157.3 107.4-250.2 124.5 67.8 43.7 112.8 119.8 112.8 206.5 0 135.7-110 245.8-245.8 245.8C331 874.6 221 764.6 221 628.9c0-96.9 56.2-180.4 137.7-220.5C151.7 344.6 0.8 151.6 0.8-76c0-17 13.8-30.7 30.7-30.7S62.3-93 62.3-76c0 245.6 199.8 445.4 445.4 445.4 111.7 0 218.5-41.5 300.8-116.8zM282.4 628.9c0 101.6 82.7 184.3 184.3 184.3S651 730.5 651 628.9s-82.7-184.3-184.3-184.3-184.3 82.7-184.3 184.3zM1014.2 323.6c-12 12-31.4 12-43.4 0L665.4 18.3 518.9 164.7c-12 12-31.4 12-43.4 0s-12-31.4 0-43.4l168.2-168.2c6-6 13.9-9 21.7-9 7.9 0 15.7 3 21.7 9l327 327c12.1 12 12.1 31.5 0.1 43.5z"  horiz-adv-x="1024" />

    
    <glyph glyph-name="hzl_flow" unicode="&#58936;" d="M411.5 628.8h44.7v-400.7h-44.7zM420.7 625l-94.8-94.4 31.6-31.5 94.8 94.4zM532.5 609.2h42.1v-368.6h-42.1zM625.3 360l-89.2-86.9 29.7-29L655 331zM752.4 895.9H271.6c-70.8 0-128.2-57.3-128.2-128V0c0-70.7 57.4-128 128.2-128h480.8c70.8 0 128.2 57.3 128.2 128V767.9c0 70.7-57.4 128-128.2 128zM816.5 0c0-35.4-28.7-64-64.1-64H271.6c-35.4 0-64.1 28.6-64.1 64v96h609v-96z m0 160h-609V672h609v-512z m0 575.9h-609v32c0 35.3 28.7 64 64.1 64h480.8c35.4 0 64.1-28.7 64.1-64v-32zM512-32c26.6 0 48.1 21.5 48.1 48s-21.5 48-48.1 48-48.1-21.5-48.1-48 21.5-48 48.1-48z"  horiz-adv-x="1024" />

    
    <glyph glyph-name="hzl_quick" unicode="&#58937;" d="M511.500049 895.90001c-261.374475 0-473.953715-212.679231-473.953716-474.053706 0-150.985255 72.892882-294.371253 195.080949-383.362562 3.499658-2.599746 7.599258-3.799629 11.598868-3.799629 6.099404 0 12.098818 2.799727 15.998437 8.099209 6.399375 8.799141 4.499561 21.19793-4.29958 27.597305C143.935944 151.972659 77.042476 283.359828 77.042476 421.746314 77.042476 661.422908 271.923445 856.403867 511.500049 856.403867S945.957621 661.422908 945.957621 421.846304c0-137.686554-66.293526-268.673762-177.282687-350.365785-8.799141-6.499365-10.698955-18.798164-4.19959-27.597304 6.499365-8.799141 18.798164-10.698955 27.597305-4.19959 121.088175 89.0913 193.381115 231.977346 193.381115 382.162679C985.453764 683.220779 772.874524 895.90001 511.500049 895.90001zM872.364808 404.148032h0.499951c6.999316 0 12.89874 5.599453 13.098721 12.69876 0.19998 4.499561 0.19998 8.999121 0.199981 13.498682 0 11.898838-0.599941 24.097647-1.699834 36.096475-0.699932 7.199297-6.999316 12.498779-14.298604 11.898838-7.199297-0.699932-12.59877-7.099307-11.898838-14.298604 0.999902-11.198906 1.599844-22.497803 1.599844-33.596719 0-4.19959-0.09999-8.39918-0.199981-12.598769-0.299971-7.299287 5.399473-13.398692 12.69876-13.698663zM618.989552 791.310224c-6.999316 2.099795-14.298604-1.799824-16.398399-8.799141-2.099795-6.999316 1.799824-14.298604 8.799141-16.398399C717.179963 733.915829 802.571624 652.423787 839.668001 548.033981c1.899814-5.399473 6.999316-8.799141 12.398789-8.799141 1.499854 0 2.999707 0.299971 4.399571 0.799922 6.899326 2.399766 10.398984 9.999024 7.999219 16.79836C824.569476 669.022166 732.77844 756.713602 618.989552 791.310224zM654.286105 0.687433c-58.594278-8.099209-116.988575-57.494385-142.786056-81.792013-25.797481 24.397617-84.191778 73.692803-142.786056 81.792013-10.798945 1.399863-20.797969-6.099404-22.297823-16.89835-1.499854-10.798945 6.099404-20.797969 16.89835-22.297822 62.693878-8.69915 132.287081-82.491944 132.987013-83.191876 3.899619-4.19959 9.199102-6.299385 14.398594-6.299385 0.299971 0 0.499951 0.09999 0.799922 0.09999 0.299971 0 0.499951-0.09999 0.799922-0.09999 5.299482 0 10.498975 2.099795 14.398594 6.299385 0.699932 0.699932 70.293135 74.592716 132.987013 83.191876 10.798945 1.499854 18.398203 11.498877 16.898349 22.297822-1.499854 10.898936-11.598867 18.298213-22.297822 16.89835zM736.978029 331.255151H532.897959V462.842301h164.583928c10.898936 0 19.698076 8.799141 19.698076 19.698076 0 10.898936-8.799141 19.698076-19.698076 19.698076H545.096768l100.690167 109.589298c7.399277 7.999219 7.399277 21.09794 0 29.097159-3.699639 3.999609-8.49917 5.999414-13.398692 5.999414-4.799531 0-9.699053-1.999805-13.398691-5.999414L512.699932 525.336198 396.911239 641.12489c-3.999609 3.999609-9.299092 5.999414-14.598574 5.999414-5.299482 0-10.498975-1.999805-14.598575-5.999414-7.999219-7.999219-7.999219-21.09794 0-29.097158l109.589298-109.589298H315.619178c-10.898936 0-19.698076-8.799141-19.698077-19.698077 0-10.898936 8.799141-19.698076 19.698077-19.698076h177.682648v-131.68714h-203.98008c-10.898936 0-19.698076-8.799141-19.698076-19.698076 0-10.898936 8.799141-19.698076 19.698076-19.698077h204.08007v-151.385216c0-10.898936 8.799141-19.798067 19.798067-19.798067 10.898936 0 19.698076 8.799141 19.698076 19.798067V291.759008H736.978029c10.898936 0 19.798067 8.799141 19.798067 19.698076-0.09999 10.898936-8.899131 19.798067-19.798067 19.798067z"  horiz-adv-x="1024" />

    
    <glyph glyph-name="hzl_living" unicode="&#58938;" d="M512 875.5c-149.9-152-399.4-363.1-399.4-583.7 0-220.6 178.8-399.4 399.4-399.4 220.6 0 399.4 178.8 399.4 399.4C911.4 512.4 668 719.6 512 875.5z m0-921.6c-186.6 0-337.9 150.9-337.9 337S385.2 655.1 512 783.4C644 651.8 849.9 477 849.9 290.9s-151.3-337-337.9-337zM645.1 327.7L492 342.3l39.2 143.9-132.1-196.6 153.1-14.5-28-198.3z"  horiz-adv-x="1024" />

    
    <glyph glyph-name="hzl_promation" unicode="&#58939;" d="M834.8 854.9H189.2c-64.8 0-117.4-52.7-117.4-117.7v-588.6c0-65 52.6-117.7 117.4-117.7h117.4v58.9H189.2c-32.4 0-58.7 26.4-58.7 58.9V737.2c0 32.5 26.3 58.9 58.7 58.9h645.7c32.4 0 58.7-26.4 58.7-58.9v-588.6c0-32.5-26.3-58.9-58.7-58.9H717.4v-58.9h117.4c64.8 0 117.4 52.7 117.4 117.7V737.2c0 65-52.5 117.7-117.4 117.7zM736.7 257.9l-202.5 203c-6.1 6.1-14.2 8.7-22.2 8.3-8 0.4-16.1-2.2-22.2-8.3l-202.5-203c-11.5-11.5-11.5-30.1 0-41.6s30-11.5 41.5 0l153.9 154.3v-428c0-16.3 13.1-29.4 29.3-29.4 16.2 0 29.3 13.2 29.3 29.4v428l153.9-154.3c11.5-11.5 30-11.5 41.5 0 11.5 11.4 11.5 30.1 0 41.6z"  horiz-adv-x="1024" />

    
    <glyph glyph-name="hzl_payment" unicode="&#58940;" d="M337.8 506.8c22.6 0 41 18.3 41 40.9V793.4c0 22.6-18.3 40.9-41 40.9H92c-22.6 0-41-18.3-41-40.9v-245.7c0-22.6 18.3-40.9 41-40.9h245.8zM112.4 772.9h205v-204.7h-205V772.9zM911.5 834.4H665.7c-22.6 0-41-18.3-41-40.9v-245.7c0-22.6 18.3-40.9 41-40.9h245.9c22.6 0 41 18.3 41 40.9V793.4c-0.1 22.6-18.4 41-41.1 41z m-20.4-266.2h-205V772.9h205v-204.7zM358.3 281.6H112.5c-22.6 0-41-18.3-41-40.9V-5c0-22.6 18.3-40.9 41-40.9h245.9c22.6 0 41 18.3 41 40.9V240.6c-0.1 22.6-18.4 41-41.1 41z m-20.4-266.2h-205V220.1h205v-204.7zM501.8 854.8c-11.3 0-20.5-9.2-20.5-20.5v-327.6c0-11.3 9.2-20.5 20.5-20.5s20.5 9.2 20.5 20.5V834.4c-0.1 11.3-9.2 20.4-20.5 20.4zM952.5 404.4h-881c-11.3 0-20.5-9.2-20.5-20.5s9.2-20.5 20.5-20.5h881c11.3 0 20.5 9.2 20.5 20.5s-9.2 20.5-20.5 20.5zM501.8 281.6c-11.3 0-20.5-9.2-20.5-20.5v-225.2c0-11.3 9.2-20.5 20.5-20.5s20.5 9.2 20.5 20.5V261.1c-0.1 11.3-9.2 20.5-20.5 20.5zM645.2 199.7c-11.3 0-20.5-13.7-20.5-30.7v-225.2c0-17 9.2-30.7 20.5-30.7s20.5 13.8 20.5 30.7V169c0 16.9-9.2 30.7-20.5 30.7zM768.1 199.7c-11.3 0-20.5-13.7-20.5-30.7v-225.2c0-17 9.2-30.7 20.5-30.7s20.5 13.8 20.5 30.7V169c0 16.9-9.2 30.7-20.5 30.7zM891.1 281.6c-11.3 0-20.5-13.7-20.5-30.7v-307.1c0-17 9.2-30.7 20.5-30.7s20.5 13.8 20.5 30.7V250.9c-0.1 16.9-9.2 30.7-20.5 30.7z"  horiz-adv-x="1024" />

    
    <glyph glyph-name="hzl_top" unicode="&#58941;" d="M752.3 895.5H271.7c-70.8 0-128.2-57.3-128.2-127.9V0c0-70.7 57.4-127.9 128.2-127.9h480.6c70.8 0 128.2 57.3 128.2 127.9V767.6C880.4 838.2 823 895.5 752.3 895.5z m64-895.6c0-35.3-28.7-64-64.1-64H271.7c-35.4 0-64.1 28.6-64.1 64v96h608.8v-96z m0 160H207.6V671.6h608.8v-511.7z m0 575.7H207.6v32c0 35.3 28.7 64 64.1 64h480.6c35.4 0 64.1-28.6 64.1-64v-32zM463.9 12.2a48.1 48 0 1 1 96.2 0 48.1 48 0 1 1-96.2 0Z"  horiz-adv-x="1024" />

    
    <glyph glyph-name="hzl_code" unicode="&#58942;" d="M52 488h302c14.5 0 26.3 11.8 26.3 26.3V842.5c0 14.5-11.8 26.3-26.3 26.3H52c-14.5 0-26.3-11.8-26.3-26.3v-328.2C25.8 499.8 37.5 488 52 488zM65.1 829.4h275.7v-301.9H65.1V829.4zM354 278H52c-14.5 0-26.3-11.8-26.3-26.3v-328.2c0-14.5 11.8-26.3 26.3-26.3h302c14.5 0 26.3 11.8 26.3 26.3V251.7c-0.1 14.5-11.8 26.3-26.3 26.3z m-13.2-341.4H65.1v302h275.7v-302zM518.1 868.7c-10.9 0-19.7-8.8-19.7-19.7v-131.3c0-10.9 8.8-19.7 19.7-19.7 10.9 0 19.7 8.8 19.7 19.7V849.1c0 10.8-8.9 19.6-19.7 19.6zM518.1 67.9c-10.9 0-19.7-8.8-19.7-19.7v-131.3c0-10.9 8.8-19.7 19.7-19.7 10.9 0 19.7 8.8 19.7 16.4V44.9c0 14.2-8.9 23-19.7 23zM45.4 356.7h144.4c10.9 0 19.7 8.8 19.7 19.7 0 10.9-8.8 19.7-19.7 19.7H45.4c-10.9 0-19.7-8.8-19.7-19.7 0.1-10.8 8.9-19.7 19.7-19.7zM518.1 566.8c-10.9 0-19.7-8.8-19.7-19.7v-151H386.8c-10.9 0-19.7-8.8-19.7-19.7 0-10.9 8.8-19.7 19.7-19.7h111.6v-111.6c0-10.9 8.8-19.7 19.7-19.7 10.9 0 19.7 8.8 19.7 19.7v302c0 10.9-8.9 19.7-19.7 19.7zM977.6 396.1H833.1c-10.9 0-19.7-8.8-19.7-19.7 0-10.9 8.8-19.7 19.7-19.7h144.4c10.9 0 19.7 8.8 19.7 19.7 0 10.9-8.8 19.7-19.6 19.7zM682.2 100.7V225.5h124.7c10.9 0 19.7 8.8 19.7 19.7s-8.8 19.7-19.7 19.7H662.5c-10.9 0-19.7-8.8-19.7-19.7v-144.4c0-10.9 8.8-19.7 19.7-19.7 10.9 0 19.7 8.8 19.7 19.6zM977.6 264.8c-10.9 0-19.7-8.8-19.7-19.7v-308.5H675.6c-10.9 0-19.7-8.8-19.7-19.7s8.8-19.7 19.7-19.7h301.9c10.9 0 19.7 8.8 19.7 19.7V245.2c0 10.8-8.8 19.6-19.6 19.6zM971 868.7H669c-14.5 0-26.3-11.8-26.3-26.3v-328.2c0-14.5 11.8-26.3 26.3-26.3h302c14.5 0 26.3 11.8 26.3 26.3V842.5c-0.1 14.5-11.8 26.2-26.3 26.2z m-13.1-341.3H682.2v302h275.7v-302zM157 803.1h-52.5c-7.3 0-13.1-5.9-13.1-13.1v-52.5c0-7.3 5.9-13.1 13.1-13.1 7.3 0 13.1 5.9 13.1 13.1v39.4H157c7.2 0 13.1 5.9 13.1 13.1 0.1 7.2-5.8 13.1-13.1 13.1zM104.5-37.1H157c7.2 0 13.1 5.9 13.1 13.1 0 7.3-5.9 13.1-13.1 13.1h-39.4v39.4c0 7.3-5.9 13.1-13.1 13.1-7.3 0-13.1-5.9-13.1-13.1V-24c0-7.2 5.9-13.1 13.1-13.1zM918.5-37.1c7.3 0 13.1 5.9 13.1 13.1v52.5c0 7.3-5.9 13.1-13.1 13.1s-13.1-5.9-13.1-13.1v-39.4H866c-7.3 0-13.1-5.9-13.1-13.1 0-7.3 5.9-13.1 13.1-13.1h52.5zM866 776.8h39.4v-39.4c0-7.3 5.9-13.1 13.1-13.1 7.3 0 13.1 5.9 13.1 13.1V790c0 7.2-5.9 13.1-13.1 13.1H866c-7.3 0-13.1-5.9-13.1-13.1-0.1-7.3 5.8-13.2 13.1-13.2z"  horiz-adv-x="1024" />

    
    <glyph glyph-name="hzl-about" unicode="&#58943;" d="M853.9 294H794v61.9h61.9V296c-0.1-1.1-1-2-2-2zM229.9 324.1c17.5 0 31.8 14.2 31.8 31.8V600.3H730v-244.4c0-17.5 14.2-31.8 31.8-31.8s31.8 14.2 31.8 31.8V864.2c0 17.5-14.2 31.8-31.8 31.8S730 881.8 730 864.2v-200.5H261.6V864.2c0 17.5-14.2 31.8-31.8 31.8S198 881.8 198 864.2v-508.4c0.1-17.5 14.3-31.7 31.9-31.7zM952.7 250.9c-17.3 4.8-34.8-5-39.6-22-3.4-11.9-87.5-292.7-401.1-292.7S114.3 216.9 110.9 228.8c-4.9 17-22.6 26.9-39.6 22.1-17-4.8-27-22.5-22.2-39.6 1-3.4 99.9-339.3 462.8-339.3s461.9 336 462.8 339.3c4.9 17-5 34.7-22 39.6z"  horiz-adv-x="1024" />

    
    <glyph glyph-name="hzl-also" unicode="&#58944;" d="M927.5 833.8H97.1C43.7 833.8 0.2 790.4 0.2 736.9v-538.5c0-53.4 43.5-96.9 96.9-96.9h506.5c17 0 30.7 13.8 30.7 30.7 0 17-13.8 30.7-30.7 30.7H97.1c-19.5 0-35.4 15.9-35.4 35.4v370h901.2v-177.5c0-17 13.8-30.7 30.7-30.7 17 0 30.7 13.8 30.7 30.7V736.9c0.1 53.4-43.4 96.9-96.8 96.9zM61.7 609.3V736.9c0 19.5 15.9 35.4 35.4 35.4h830.4c19.5 0 35.4-15.9 35.4-35.4v-127.6H61.7zM429.5 407c0 11.3-9.2 20.5-20.5 20.5H156.4c-11.3 0-20.5-9.2-20.5-20.5s9.2-20.5 20.5-20.5H409c11.4 0.1 20.5 9.2 20.5 20.5zM504.6 427.5c-11.3 0-20.5-9.2-20.5-20.5s9.2-20.5 20.5-20.5h48.6c11.3 0 20.5 9.2 20.5 20.5s-9.2 20.5-20.5 20.5h-48.6zM156.4 337.9c-8.5 0-15.4-6.9-15.4-15.4s6.9-15.4 15.4-15.4h179.2c8.5 0 15.4 6.9 15.4 15.4s-6.9 15.4-15.4 15.4H156.4zM961.2 132.2c0 8.5-6.9 15.4-15.4 15.4h-65.1l76.8 90.8c5.5 6.5 4.7 16.2-1.8 21.6-6.5 5.5-16.2 4.7-21.6-1.8L847.7 156l-85.6 102.1c-5.5 6.5-15.2 7.4-21.6 1.9-6.5-5.5-7.4-15.1-1.9-21.6l76.2-90.9h-64.4c-8.5 0-15.4-6.9-15.4-15.4s6.9-15.4 15.4-15.4h82l0.1-41.8h-82.1c-8.5 0-15.4-6.9-15.4-15.4s6.9-15.4 15.4-15.4h82.2l0.2-84.5c0-8.5 6.9-15.3 15.4-15.3s15.3 6.9 15.3 15.4l-0.2 84.5h82.6c8.5 0 15.4 6.9 15.4 15.4s-6.9 15.4-15.4 15.4h-82.6l-0.1 41.8H946c8.3 0.1 15.2 6.9 15.2 15.4z"  horiz-adv-x="1024" />

    
    <glyph glyph-name="hzl-application" unicode="&#58945;" d="M1000.5 88.6H886.2V202.9c0 8.5-6.9 15.4-15.4 15.4s-15.4-6.9-15.4-15.4v-114.2H741.3c-8.5 0-15.4-6.9-15.4-15.4s6.9-15.4 15.4-15.4h114.2v-114.2c0-8.5 6.9-15.4 15.4-15.4s15.4 6.9 15.4 15.4V57.9h114.2c8.5 0 15.4 6.9 15.4 15.4-0.1 8.5-7 15.3-15.4 15.3zM131.7 247.7v-89.6c0-11.3 9.2-20.5 20.5-20.5s20.5 9.2 20.5 20.5v89.6c0 11.3-9.2 20.5-20.5 20.5-11.4 0-20.5-9.2-20.5-20.5zM255.8 247.7v-89.6c0-11.3 9.2-20.5 20.5-20.5s20.5 9.2 20.5 20.5v89.6c0 11.3-9.2 20.5-20.5 20.5s-20.5-9.2-20.5-20.5zM378.1 247.7v-89.6c0-11.3 9.2-20.5 20.5-20.5s20.5 9.2 20.5 20.5v89.6c0 11.3-9.2 20.5-20.5 20.5-11.4 0-20.5-9.2-20.5-20.5zM927.2 773.1H96.9C43.5 773.1 0 729.7 0 676.3v-538.5C0 84.4 43.5 41 96.9 41h506.5c17 0 30.7 13.8 30.7 30.7s-13.8 30.7-30.7 30.7H96.9c-19.5 0-35.4 15.9-35.4 35.4v265h901.1v-72.5c0-17 13.8-30.7 30.7-30.7s30.7 13.8 30.7 30.7v346c0 53.4-43.4 96.8-96.8 96.8zM96.9 711.7h830.3c19.5 0 35.4-15.9 35.4-35.4v-68.7H61.4v68.7c0 19.5 15.9 35.4 35.5 35.4z m-35.5-268V566.6h901.1v-122.9H61.4z"  horiz-adv-x="1024" />

    
    <glyph glyph-name="hzl-client" unicode="&#58946;" d="M571.5 321.7c92.2 50.6 154.9 148.5 154.9 260.9C726.4 746.6 593 880 429 880S131.7 746.5 131.7 582.6c0-112.4 62.7-210.3 154.9-260.9-166-58.9-285.4-217-285.4-402.9 0-17 13.7-30.7 30.7-30.7s30.7 13.7 30.7 30.7c0 202 164.4 366.4 366.4 366.4s366.5-164.4 366.5-366.5c0-17 13.7-30.7 30.7-30.7s30.7 13.7 30.7 30.7c0 185.9-119.4 344.1-285.4 403zM193.1 582.6c0 130.1 105.8 236 236 236s236-105.8 236-236-105.8-236-236-236-236 105.9-236 236zM822.6 357.7c64.2 36.5 107.6 105.6 107.6 184.6 0 117-95.2 212.1-212.2 212.1-12.7 0-23-10.3-23-23s10.3-23 23-23c91.6 0 166.1-74.5 166.1-166.1S809.6 376.2 718 376.2v-46c142.6 0 258.7-116 258.7-258.7 0-12.7 10.3-23 23-23s23 10.3 23 23c0.1 131.2-83.4 243.4-200.1 286.2z"  horiz-adv-x="1024" />

    
    <glyph glyph-name="hzl-friend" unicode="&#58947;" d="M512.004984-128C229.687227-128 0.004984 101.682243 0.004984 384S229.687227 896 512.004984 896s512-229.682243 512-512-229.682243-512-512-512z m0 993.395639C246.534579 865.395639 30.609346 649.470405 30.609346 384S246.534579-97.395639 512.004984-97.395639 993.400623 118.529595 993.400623 384 777.475389 865.395639 512.004984 865.395639zM430.459813 144.448598c25.619938-8.772586 53.034268-13.657321 81.64486-13.657321 33.196262 0 64.797508 6.579439 93.906542 18.143302l-175.152648 175.451714-0.398754-179.937695zM751.95514 303.252336c8.573209 25.320872 13.358255 52.436137 13.358256 80.647976 0 32.598131-6.380062 63.700935-17.64486 92.411214L571.618692 303.252336h180.336448zM284.914642 272.747664c26.517134-54.031153 71.476636-97.29595 126.903427-121.221184l0.59813 247.825545-127.501557-126.604361zM624.154517 157.109034c53.931464 26.716511 97.196262 71.875389 120.922119 127.501558H496.952025l127.202492-127.501558zM272.852336 466.143302c-8.872274-25.819315-13.956386-53.433022-13.956386-82.24299 0-32.897196 6.479751-64.199377 17.844237-93.009346l175.65109 174.35514-179.538941 0.897196zM739.593769 494.554517c-26.317757 54.031153-71.17757 97.395639-126.504672 121.520249l-1.894081-247.626168 128.398753 126.105919zM594.54704 623.152648c-25.919003 8.872274-53.53271 13.956386-82.442367 13.956386-32.797508 0-64-6.380062-92.71028-17.744548l173.757009-175.950156 1.395638 179.738318zM401.151402 611.28972c-53.931464-26.417445-97.196262-71.17757-121.320872-126.504673l247.426791-1.196262L401.151402 611.28972z"  horiz-adv-x="1027" />

    
    <glyph glyph-name="hzl-home_selected" unicode="&#58948;" d="M823.856362-114.010929c35.572209 0 64.449649 28.87744 64.449649 64.449649V326.544887h61.851678c15.98751 0 31.175644 7.893833 39.669009 21.383294 21.083528 33.473849 16.087432 76.640125-11.790789 104.518345L552.967994 857.130367l-404.683841-404.683841c-26.179547-26.179547-32.274785-65.848556-15.088212-98.622951 8.79313-16.786885 26.779079-27.178767 46.96331-27.178766H204.240437v-376.106167c0-35.572209 28.87744-64.449649 64.449649-64.449649h555.166276zM996.221702 438.557377L572.652615 862.126464C539.778298 895.000781 486.320062 895.000781 453.445746 862.126464L29.976581 438.557377C3.797034 412.37783-2.298205 372.708821 14.888368 339.934426c8.79313-16.786885 26.779079-27.178767 46.96331-27.178766h69.64559v-376.106167c0-35.572209 28.87744-64.449649 64.449648-64.449649h369.51132c6.494926 0 13.989071 2.697892 16.986729 3.996877 2.897736 1.298985 5.895394 1.998439 9.892272 3.797034 3.996877 1.898517 8.193599 4.596409 12.590163 6.794692 26.579235 13.389539 44.864949 40.76815 44.86495 72.543325V94.42623c0 49.960968-40.468384 90.429352-90.429352 90.429352H441.155347c-9.892272 0-17.886027 7.993755-17.886026 17.886026V309.957845c0 9.392662-7.594067 17.086651-17.086651 17.086651S389.096019 319.450429 389.096019 309.957845V25.679938c0-9.392662 7.594067-17.086651 17.086651-17.086652s17.086651 7.594067 17.086651 17.086652V133.195941c0 9.692428 7.893833 17.586261 17.586261 17.58626h118.307572c31.175644 0 56.355972-25.28025 56.355972-56.355971v-134.994536c0-10.691647-3.59719-20.583919-9.592506-28.577674-3.397346-4.396565-7.494145-8.193599-12.090554-11.191257-4.096799-2.098361-9.092896-1.798595-10.991413-1.798594-3.697112 0-17.486339-0.099922-17.486339-0.099922H195.747073c-10.491803 0-18.985168 8.493365-18.985168 18.985168V318.45121c0 21.982826-17.786105 39.768931-39.768931 39.768931H61.751756c-3.197502 0-5.895394 1.398907-6.594847 2.797814-7.893833 15.088212-5.096019 33.373927 6.994535 45.364559L485.620609 829.9516c15.188134 15.188134 39.768931 15.188134 54.857143 0L964.046838 406.382514c12.690086-12.690086 15.088212-32.174863 4.196722-48.262295h-64.249805c-23.781421 0-43.066354-19.284934-43.066355-43.066355v-378.504293c0-10.391881-8.493365-18.985168-18.985167-18.985168h-80.537081c-12.590164 0-22.782201-10.192037-22.782201-22.782202s10.192037-22.782201 22.782201-22.782201h80.537081c35.572209 0 64.449649 28.87744 64.449648 64.449649V312.75566h61.851679c15.98751 0 31.175644 7.893833 39.669008 21.383294 21.083528 33.373927 16.187354 76.540203-11.690866 104.418423z"  horiz-adv-x="1024" />

    
    <glyph glyph-name="hzl-loan" unicode="&#58949;" d="M512 878.1C239.5 878.1 17.9 656.5 17.9 384s221.7-494.1 494.1-494.1 494.1 221.7 494.1 494.1S784.5 878.1 512 878.1z m0-926.8C273.4-48.7 79.3 145.4 79.3 384S273.4 816.7 512 816.7 944.7 622.6 944.7 384 750.6-48.7 512-48.7zM699.9 580c-8.6 7.4-21.5 6.5-28.9-2.1L530.9 416 390.1 591.4c-7.1 8.8-20 10.2-28.8 3.2-8.8-7.1-10.2-20-3.2-28.8L485.5 407H374.1c-11.3 0-20.5-9.2-20.5-20.5s9.2-20.5 20.5-20.5h140.2v-62.7H374.1c-11.3 0-20.5-9.2-20.5-20.5s9.2-20.5 20.5-20.5h140.2v-131.9c0-11.3 9.2-20.5 20.5-20.5s20.5 9.2 20.5 20.5v132H682c11.3 0 20.5 9.2 20.5 20.5s-9.2 20.5-20.5 20.5H555.3v62.7H682c11.3 0 20.5 9.2 20.5 20.5s-9.2 20.5-20.5 20.5H577.3l124.7 144c7.4 8.6 6.5 21.5-2.1 28.9z"  horiz-adv-x="1024" />

    
    <glyph glyph-name="hzl-home" unicode="&#58950;" d="M995.513982 438.327974L571.965312 861.776868c-32.826269 32.826269-86.306148 32.826269-119.132417 0L29.384001 438.327974C3.142941 412.18669-2.943389 372.57566 14.218065 339.749391c8.780279-16.76235 26.73994-27.238819 46.89467-27.238819h69.643574v-376.055344c0-35.619994 28.835233-64.455228 64.455228-64.455228h369.470135c6.485433 0 13.968625 2.693949 16.961902 3.991036s5.886778 1.995518 9.877814 3.791484 8.181623 4.589691 12.571762 6.784761c26.540388 13.36997 44.899152 40.808341 44.899152 72.537074V94.200916c0 49.987723-40.509013 90.496736-90.496735 90.496736H440.460684c-9.877814 0-17.959661 7.982072-17.959661 17.959661V309.716847c0 9.378934-7.682744 17.061678-17.061678 17.061678s-17.061678-7.682744-17.061678-17.061678v-284.161746c0-9.378934 7.682744-17.061678 17.061678-17.061678s17.061678 7.682744 17.061678 17.061678V132.913963c0 9.778038 7.882296 17.660333 17.660333 17.660333h118.334211c31.130079 0 56.37338-25.243301 56.37338-56.37338v-134.996785c0-10.676021-3.591932-20.65361-9.578486-28.535905-3.39238-4.390139-7.483192-8.181623-12.172659-11.274676-4.090812-2.095294-9.079606-1.795966-10.975349-1.795966-3.691708 0-17.460781-0.099776-17.460781-0.099776H195.211537c-10.476469 0-18.95742 8.480951-18.95742 18.95742V318.197798c0 21.950697-17.760109 39.710806-39.710806 39.710806H61.212511c-3.192829 0-5.886778 1.396863-6.585209 2.793725-7.882296 15.06616-5.088571 33.325149 6.984313 45.398032L484.960733 829.64903c15.165936 15.165936 39.710806 15.165936 54.876741 0l423.448895-423.448894c12.671539-12.671539 15.06616-32.227614 4.190587-48.191756h-64.255676c-23.746663 0-43.103186-19.256748-43.103186-43.103187v-378.449965c0-10.476469-8.580727-18.95742-18.95742-18.95742h-80.519146c-12.571763 0-22.748904-10.177141-22.748904-22.748904 0-12.571763 10.177141-22.748904 22.748904-22.748904H841.26045c35.619994 0 64.455228 28.835233 64.455228 64.455228V312.510572h61.861054c15.964143 0 31.130079 7.882296 39.710806 21.352041 20.952938 33.424924 16.063919 76.627887-11.773556 104.465361z"  horiz-adv-x="1024" />

    
    <glyph glyph-name="hzl-mine" unicode="&#58951;" d="M524.1 325.6C370 325.6 244.6 451 244.6 605.2S370 884.7 524.1 884.7s279.5-125.4 279.5-279.5-125.3-279.6-279.5-279.6z m0 513.7C395 839.3 290 734.3 290 605.2S395 371 524.1 371s234.1 105 234.1 234.1-105 234.2-234.1 234.2zM521.2 442c-65.4 0-118.6 53.2-118.6 118.6 0 9.4 7.6 17 17 17s17-7.6 17-17c0-46.6 37.9-84.5 84.5-84.5s84.5 37.9 84.5 84.5c0 9.4 7.6 17 17 17s17-7.6 17-17c0.1-65.4-53-118.6-118.4-118.6zM902.9-128H139.5c-52.4 0-95.1 42.7-95.1 95.1V65c0 96.2 78.3 174.5 174.5 174.5h604.5c96.2 0 174.5-78.3 174.5-174.5v-97.9c0.1-52.4-42.6-95.1-95-95.1z m-684 322.1c-71.2 0-129.1-57.9-129.1-129.1v-97.9c0-27.4 22.3-49.7 49.7-49.7h763.4c27.4 0 49.7 22.3 49.7 49.7V65c0 71.2-57.9 129.1-129.1 129.1H218.9z"  horiz-adv-x="1024" />

    
    <glyph glyph-name="hzl-mine_selected" unicode="&#58952;" d="M895.3-115H235.6c-45.3 0-82.1 33.4-82.1 74.3v76.6c0 75.3 67.6 136.5 150.8 136.5h522.3c83.2 0 150.8-61.2 150.8-136.5v-76.6c0-40.9-36.9-74.3-82.1-74.3zM537.4 584.6m-213.5 0a213.5 213.5 0 1 1 427 0 213.5 213.5 0 1 1-427 0ZM524.1 325.6C370 325.6 244.6 451 244.6 605.2S370 884.7 524.1 884.7s279.5-125.4 279.5-279.5-125.3-279.6-279.5-279.6z m0 513.7C395 839.3 290 734.3 290 605.2S395 371 524.1 371s234.1 105 234.1 234.1-105 234.2-234.1 234.2zM521.2 442c-65.4 0-118.6 53.2-118.6 118.6 0 9.4 7.6 17 17 17s17-7.6 17-17c0-46.6 37.9-84.5 84.5-84.5s84.5 37.9 84.5 84.5c0 9.4 7.6 17 17 17s17-7.6 17-17c0.1-65.4-53-118.6-118.4-118.6zM902.9-128H139.5c-52.4 0-95.1 42.7-95.1 95.1V65c0 96.2 78.3 174.5 174.5 174.5h604.5c96.2 0 174.5-78.3 174.5-174.5v-97.9c0.1-52.4-42.6-95.1-95-95.1z m-684 322.1c-71.2 0-129.1-57.9-129.1-129.1v-97.9c0-27.4 22.3-49.7 49.7-49.7h763.4c27.4 0 49.7 22.3 49.7 49.7V65c0 71.2-57.9 129.1-129.1 129.1H218.9z"  horiz-adv-x="1024" />

    
    <glyph glyph-name="hzl-password" unicode="&#58953;" d="M865.7 227.7c-17.1 0-30.9-13.8-30.9-30.9v-186.5c0-22.9-18.6-41.6-41.6-41.6H103.3c-22.9 0-41.6 18.6-41.6 41.6V379.5c0 22.9 18.6 41.6 41.6 41.6h507.3c17.1 0 30.9 13.8 30.9 30.9 0 17.1-13.8 30.9-30.9 30.9H134.5c0 0.6 0.3 1.1 0.3 1.6C134.8 658 276 799.2 449.6 799.2c84.1 0 163.1-32.7 222.6-92.2 10.5-10.4 20.4-21.8 29.4-33.9 10.3-13.7 29.7-16.4 43.3-6.2 13.6 10.3 16.4 29.7 6.2 43.3-10.8 14.4-22.6 28-35.1 40.5C644.7 821.9 550.1 861.1 449.6 861.1 241.9 861.1 73 692.1 73 484.5c0-2.2 0.8-4.2 1.3-6.3C31.5 465.5 0 426.3 0 379.5v-369.1c0-57 46.4-103.4 103.4-103.4h689.9c57 0 103.4 46.4 103.4 103.4V196.8c0 17.1-13.9 30.9-31 30.9zM1017 607.5c-12.1 12.1-31.6 12.1-43.7 0L450.5 84.8c-12.1-12.1-12.1-31.6 0-43.7 6-6 14-9.1 21.9-9.1 7.9 0 15.8 3 21.9 9.1L1017 563.8c12.1 12.1 12.1 31.7 0 43.7z"  horiz-adv-x="1026" />

    
    <glyph glyph-name="hzl-pepayment" unicode="&#58954;" d="M131.7 247.7v-89.6c0-11.3 9.2-20.5 20.5-20.5s20.5 9.2 20.5 20.5v89.6c0 11.3-9.2 20.5-20.5 20.5-11.4 0-20.5-9.2-20.5-20.5zM255.8 247.7v-89.6c0-11.3 9.2-20.5 20.5-20.5s20.5 9.2 20.5 20.5v89.6c0 11.3-9.2 20.5-20.5 20.5s-20.5-9.2-20.5-20.5zM378.1 247.7v-89.6c0-11.3 9.2-20.5 20.5-20.5s20.5 9.2 20.5 20.5v89.6c0 11.3-9.2 20.5-20.5 20.5s-20.5-9.2-20.5-20.5zM927.2 773.1H96.9C43.5 773.1 0 729.7 0 676.3v-538.5C0 84.4 43.5 41 96.9 41h506.5c17 0 30.7 13.8 30.7 30.7 0 17-13.8 30.7-30.7 30.7H96.9c-19.5 0-35.4 15.9-35.4 35.4v265h901.1v-72.5c0-17 13.8-30.7 30.7-30.7 17 0 30.7 13.8 30.7 30.7v346c0 53.4-43.4 96.8-96.8 96.8zM96.9 711.7h830.3c19.5 0 35.4-15.9 35.4-35.4v-68.7H61.4v68.7c0 19.5 15.9 35.4 35.5 35.4z m-35.5-268V566.6h901.1v-122.9H61.4zM911.5-76.7c-2.5 0-5 0.4-7.4 1.2-10.2 3.5-16.4 13.5-15.2 24.2 8.7 77.7-75.4 155-105.7 180.2l-36.6-61.3c-4.8-8-14-12.4-23.1-10.8-9.3 1.4-16.6 8.3-18.7 17.4l-45.4 196.5c-1.4 6-0.3 12.1 2.9 17.3 3.3 5.2 8.3 8.8 14.3 10.1l187.6 42.2c9 2 18.4-1.6 23.7-9.2 5.3-7.6 5.5-17.5 0.6-25.3l-34.4-54.1c171.2-120 110.9-261.8 76.7-317.7-4.3-6.7-11.6-10.7-19.3-10.7zM781 163.8c5 0 10-1.7 14-4.9 28.4-22.4 113.6-96 124-181.6 30 64.7 42.7 164.7-88.5 253.4-10.2 6.8-13.2 20.8-6.6 31.1l28.3 44.5L691.1 270l39.1-169.6 31.2 52.2c3.4 5.7 9 9.6 15.5 10.8 1.4 0.2 2.8 0.4 4.1 0.4z"  horiz-adv-x="1024" />

    
    <glyph glyph-name="hzl-QQ" unicode="&#58955;" d="M577.9 130.5c-24.9 0-46.8-0.7-64.9-2.3-17.9 1.7-39.9 2.3-64.7 2.3-71.6 0-135.3-27.1-135.3-47 0-19.2 52.9-17 124.3-16.2 28.8 0.2 55.2 3.3 76.6 8 21.2-4.5 46.9-7.3 74.8-7.5 71.4-0.7 124.3-2.9 124.3 16.2 0.1 19.6-63.8 46.5-135.1 46.5zM755.9 327.4c-13.4 36.1-28 71.8-43.8 106.9 0.8 8.7 1.1 17.4 1.1 25.9 0 134.5-68.9 243.7-199.7 243.7s-199.9-109-199.9-243.6c0-8.2 0.2-16.2 1-24.2-10.3-23-27.2-62.1-44.5-108.8-27.6-74.7-28.8-142.3-19.2-147.2 6.9-3.5 31.7 22.5 55.5 64.9 15.6-99.6 82-174.1 207-174.1 124.8 0 190.9 74.1 206.8 173.2 23.6-41.4 48.1-66.9 54.9-63.5 9.5 5 8.4 72.3-19.2 146.8zM459.8 624c-19.5-0.2-34.7-23.2-34.1-51 0.6-27.9 16.8-50.2 36.1-49.8 19.5 0.2 34.7 23.2 34.1 51-0.4 28-16.6 50.3-36.1 49.8z m107.6-0.4c-19.6 0.2-36-21.8-36.5-49.6-0.6-27.7 15-50.5 34.6-50.9 19.6-0.2 36 21.8 36.5 49.6 0.3 27.7-15.1 50.4-34.6 50.9zM641 400.2c-38-6.5-82.1-10.4-128.9-10.4-45.9 0-89.2 3.7-126.7 9.9-25.9-32.2-28-79.4-28-132 0-96.7 54.8-175.2 155.9-175.2 101.3 0 155.9 78.3 155.9 175.2 0.1 53-1.8 100.2-28.2 132.5zM513.2 506.8c-67.9 0-123.2-13.7-123.2-24.7S461.9 441 513.2 441s123.2 30.8 123.2 41.1c0 10.4-55 24.7-123.2 24.7zM712 434.4v0.8c-49.9-16.4-120.5-26.8-198.8-26.8-78.3 0-149.1 10.4-199 27.1-10.5-23.6-20.8-47.6-30.3-71.9 30.8-10.3 65.3-18.4 102.5-24.2v-91.5s26.5-4.8 51.2-5.9c17.6-0.7 36.3 2.3 36.3 2.3v86.8c12.8-0.6 25.9-0.8 39.3-0.8 85.9 0 165.3 12.3 228.7 33.3-9.3 23.6-19.4 47.4-29.9 70.8zM471.3 588.9c-8.6 0-15.5-8.9-15.5-20.1 0-11.1 7-20.1 15.5-20.1 8.6 0 15.5 9.1 15.5 20.1 0.2 11.2-6.8 20.1-15.5 20.1z m114.1-12.8s-6.3 7.4-21.9 5.4c-15.5-1.9-21.5-11-22.6-11.8 0 0-3.7-5.1-1.1-8.2 2.5-3.1 7.3 1.8 7.3 1.8s7.1 8.8 16.3 9.1c9.2 0.2 14.5-3.7 14.5-3.7s4.6-3.3 7.3 0c2.9 3.4 0.2 7.4 0.2 7.4zM513 869.5c267.2 0 484.4-217.2 484.4-484.4S780.2-99.2 513-99.2 28.6 118.1 28.6 385.2 246 869.5 513 869.5M513 895C231.5 895 3.2 666.7 3.2 385.2s228.3-509.8 509.8-509.8 509.8 228.3 509.8 509.8S794.7 895 513 895z"  horiz-adv-x="1024" />

    
    <glyph glyph-name="hzl-promotion" unicode="&#58956;" d="M807.1 147.2c-45.2 0-84.8-23.9-107.4-59.5L498.9 288.5c0.2 4 0.6 7.9 0.6 11.9 0 21.3-3.1 41.8-8.6 61.3l206.6 206.6c30-24.6 67.8-40 109.6-40 95.8 0 173.7 77.9 173.7 173.7S902.9 875.7 807.1 875.7 633.4 797.7 633.4 702c0-35.9 10.9-69.2 29.6-96.9l-193-193c-39.2 69.4-113.5 116.5-198.7 116.5-125.8 0-228.2-102.4-228.2-228.2s102.4-228.2 228.2-228.2c100.7 0 186.2 65.6 216.4 156.3L681.2 35c-0.6-5-1.5-10-1.5-15.2 0-70.3 57.2-127.5 127.5-127.5s127.5 57.2 127.5 127.5-57.3 127.4-127.6 127.4z m0 678.1c68 0 123.4-55.3 123.4-123.4s-55.3-123.4-123.4-123.4S683.8 634 683.8 702 739.1 825.3 807.1 825.3zM271.3 122.5c-98 0-177.8 79.8-177.8 177.8s79.8 177.8 177.8 177.8 177.8-79.8 177.8-177.8-79.7-177.8-177.8-177.8z m535.8-179.8c-42.5 0-77.1 34.6-77.1 77.1s34.6 77.1 77.1 77.1 77.1-34.6 77.1-77.1-34.6-77.1-77.1-77.1z"  horiz-adv-x="1024" />

    
    <glyph glyph-name="hzl-rate" unicode="&#58957;" d="M512-125.9C230.8-125.9 2.1 102.8 2.1 384S230.8 893.9 512 893.9s509.9-228.7 509.9-509.9-228.7-509.9-509.9-509.9z m0 961.5C263 835.6 60.4 633 60.4 384S263-67.6 512-67.6 963.6 135 963.6 384 761 835.6 512 835.6zM374.7 423.9c-54 0-97.8 43.9-97.8 97.8 0 54 43.9 97.9 97.8 97.9s97.9-43.9 97.9-97.9c-0.1-53.9-44-97.8-97.9-97.8z m0 137.4c-21.8 0-39.6-17.8-39.6-39.6s17.8-39.6 39.6-39.6 39.6 17.8 39.6 39.6c0 21.9-17.8 39.6-39.6 39.6zM647.8 148.9c-54 0-97.8 43.9-97.8 97.8 0 54 43.9 97.9 97.8 97.9s97.9-43.9 97.9-97.9c-0.1-53.9-44-97.8-97.9-97.8z m0 137.5c-21.8 0-39.6-17.8-39.6-39.6s17.8-39.6 39.6-39.6 39.6 17.8 39.6 39.6-17.8 39.6-39.6 39.6zM304.9 178.2c-11.3 11.4-11.2 29.9 0.2 41.2l374.8 371.1c11.4 11.3 29.9 11.2 41.2-0.2 11.3-11.4 11.2-29.9-0.2-41.2L346.1 178c-11.5-11.4-29.9-11.3-41.2 0.2z"  horiz-adv-x="1024" />

    
    <glyph glyph-name="hzl-verified" unicode="&#58958;" d="M769.8 277.2c11.4-11.4 30-11.6 41.4-0.2 11.5 11.4 11.6 29.9 0.2 41.4-57.4 58-127 99.3-203.2 121.6 68.1 44.1 113.3 120.7 113.3 207.7C721.6 784.1 610.7 895 474.3 895S227.1 784.1 227.1 647.7c0-87.1 45.3-163.8 113.5-207.9C144 382 0 199.9 0-15.2c0-16.2 13.1-29.3 29.3-29.3s29.3 13.1 29.3 29.3c0 229.2 186.5 415.7 415.7 415.7 111.9 0 216.8-43.8 295.5-123.3zM285.6 647.7c0 104 84.6 188.7 188.7 188.7S663 751.8 663 647.7c0-104-84.6-188.7-188.7-188.7s-188.7 84.7-188.7 188.7zM1016.4 375.6c-11.6 11.2-30.2 11-41.4-0.7L670.1 60.4 519.3 211.2c-11.4 11.4-30 11.4-41.4 0-11.4-11.4-11.4-30 0-41.4l192.9-192.9L1017 334.2c11.3 11.6 11 30.2-0.6 41.4z"  horiz-adv-x="1025" />

    
    <glyph glyph-name="hzl-wechat" unicode="&#58959;" d="M512 894.6C230 894.6 1.4 666 1.4 384S230-126.6 512-126.6 1022.6 102 1022.6 384 794 894.6 512 894.6m0-992.8C245.7-98.2 29.8 117.7 29.8 384 29.8 650.3 245.7 866.2 512 866.2S994.2 650.3 994.2 384c0-266.3-215.9-482.2-482.2-482.2m0 0zM622.5 484.5c7.2 0 14.2-0.5 21.4-1.3-19.1 89.1-114.3 155.2-223 155.2-121.5 0-221-82.8-221-188 0-60.7 33.1-110.5 88.5-149.3l-22.1-66.5 77.3 38.7c27.6-5.4 49.8-11.1 77.4-11.1 6.9 0 13.8 0.3 20.6 0.8-4.3 14.8-6.8 30.3-6.8 46.4-0.2 96.7 82.7 175.1 187.7 175.1m-118.9 59.9c16.7 0 27.7-11 27.7-27.6 0-16.5-11-27.6-27.7-27.6-16.5 0-33.1 11.1-33.1 27.6 0 16.7 16.6 27.6 33.1 27.6m-154.7-55.2c-16.6 0-33.3 11.1-33.3 27.6 0 16.6 16.7 27.6 33.3 27.6 16.6 0 27.6-10.9 27.6-27.6 0-16.5-11-27.6-27.6-27.6m0 0zM824.3 312.2c0 88.4-88.5 160.4-187.8 160.4-105.2 0-188-72.1-188-160.4 0-88.6 82.8-160.4 188-160.4 22 0 44.2 5.5 66.3 11l60.6-33.3-16.6 55.3c44.4 33.4 77.5 77.5 77.5 127.4m-248.8 27.7c-11 0-22.1 10.9-22.1 22.1 0 11 11.1 22.1 22.1 22.1 16.8 0 27.7-11.1 27.7-22.1 0-11.2-10.9-22.1-27.7-22.1m121.6 0c-10.9 0-22 10.9-22 22.1 0 11 11 22.1 22 22.1 16.6 0 27.7-11.1 27.7-22.1 0-11.2-11.1-22.1-27.7-22.1m0 0z"  horiz-adv-x="1024" />

    
    <glyph glyph-name="agree" unicode="&#58960;" d="M512 896C229.2 896 0 666.8 0 384s229.2-512 512-512 512 229.2 512 512S794.8 896 512 896z m0.3-862c-8.3-11.4-21-18.7-34.9-20.2-1.8-0.2-3.5-0.3-5.3-0.3-12.1 0-23.9 4.5-33 12.7l-295.9 264c-10.6 9.4-11.5 25.6-2.1 36.2 9.4 10.6 25.5 11.5 36.2 2.1l296-264 410.9 571.4c8.3 11.5 24.3 14 35.8 5.8 11.5-8.3 14.1-24.3 5.8-35.8L512.3 34z"  horiz-adv-x="1024" />

    
    <glyph glyph-name="anonymous" unicode="&#58961;" d="M512.000117 842.131564c252.651962 0 458.131564-205.479602 458.131564-458.131564S764.652079-74.131564 512.000117-74.131564 53.868554 131.348038 53.868554 384 259.348155 842.131564 512.000117 842.131564m0 53.868436C229.16584 896 0.000117 666.734335 0.000117 384s229.265665-512 512-512 512 229.265665 512 512S794.734452 896 512.000117 896zM512.000117 120.054655c-104.73863 0-199.78294 53.468671-254.251025 143.116143-7.695491 12.692563-3.697833 29.282842 8.99473 36.978333 12.692563 7.695491 29.282842 3.697833 36.978333-8.994729 44.573882-73.357017 122.428265-117.23131 208.178021-117.23131S675.504314 217.697443 720.078196 291.154402c7.695491 12.692563 24.28577 16.790162 36.978333 8.994729 12.692563-7.695491 16.790162-24.28577 8.99473-36.978333-54.268202-89.547531-149.312512-143.116143-254.051142-143.116143zM332.305407 526.616436m-67.360531 0a67.360531 67.360531 0 1 1 134.721062 0 67.360531 67.360531 0 1 1-134.721062 0ZM691.694827 526.616436m-67.360531 0a67.360531 67.360531 0 1 1 134.721062 0 67.360531 67.360531 0 1 1-134.721062 0Z"  horiz-adv-x="1024" />

    
    <glyph glyph-name="approve" unicode="&#58962;" d="M808.5 252.6c12.5-11.4 31.9-10.6 43.4 1.9s10.6 31.9-1.9 43.4c-70.7 64.7-157.3 107.4-250.2 124.5 67.8 43.7 112.8 119.8 112.8 206.5 0 135.7-110 245.8-245.8 245.8C331 874.6 221 764.6 221 628.9c0-96.9 56.2-180.4 137.7-220.5C151.7 344.6 0.8 151.6 0.8-76c0-17 13.8-30.7 30.7-30.7S62.3-93 62.3-76c0 245.6 199.8 445.4 445.4 445.4 111.7 0 218.5-41.5 300.8-116.8zM282.4 628.9c0 101.6 82.7 184.3 184.3 184.3S651 730.5 651 628.9s-82.7-184.3-184.3-184.3-184.3 82.7-184.3 184.3zM1014.2 323.6c-12 12-31.4 12-43.4 0L665.4 18.3 518.9 164.7c-12 12-31.4 12-43.4 0s-12-31.4 0-43.4l168.2-168.2c6-6 13.9-9 21.7-9 7.9 0 15.7 3 21.7 9l327 327c12.1 12 12.1 31.5 0.1 43.5z"  horiz-adv-x="1024" />

    
    <glyph glyph-name="copywriteri" unicode="&#58963;" d="M776.4 893.1c-19.6 0-35.6-15.9-35.6-35.6s16-35.6 35.6-35.6c60.1 0 109.2-49 109.2-109.2V217l-199.6-0.3c-39.9-0.1-72.2-32.7-72.2-72.7l0.6-197.9H247.6c-60.1 0-109.2 49-109.2 109.2V712.8c0 60.2 49 109.2 109.2 109.2 19.6 0 35.6 15.9 35.6 35.6s-16 35.6-35.6 35.6c-99.4 0-180.3-80.9-180.3-180.3v-657.6c0-99.4 80.8-180.3 180.3-180.3H624c27.2 0 49.5 18.1 57.6 42.6l242.6 232.1c18.9 7.3 32.4 25.5 32.4 47V712.8c0.1 99.4-80.8 180.3-180.2 180.3z m-90.3-747.5l131.2 0.3-131.6-126 0.4 125.7zM785.6 552.9H245.7c-19.6 0-35.6-15.9-35.6-35.6s16-35.6 35.6-35.6h539.9c19.6 0 35.6 15.9 35.6 35.6s-16.1 35.6-35.6 35.6zM785.6 364.4H245.7c-19.6 0-35.6-15.9-35.6-35.6 0-19.7 16-35.6 35.6-35.6h539.9c19.6 0 35.6 15.9 35.6 35.6-0.1 19.7-16.1 35.6-35.6 35.6zM515.7 644.9c60.8 0 110.3 49.4 110.3 110.3h-71.1c0-21.6-17.6-39.2-39.2-39.2-21.7 0-39.3 17.6-39.3 39.2h-71.1c0-60.9 49.6-110.3 110.4-110.3zM382.8 766.5c19.6 0 35.6 15.9 35.6 35.6V857.5c0 19.7-16 35.6-35.6 35.6s-35.6-15.9-35.6-35.6v-55.4c0-19.7 16-35.6 35.6-35.6zM648.3 766.5c19.6 0 35.6 15.9 35.6 35.6V857.5c0 19.7-16 35.6-35.6 35.6s-35.6-15.9-35.6-35.6v-55.4c0.1-19.7 16-35.6 35.6-35.6z"  horiz-adv-x="1024" />

    
    <glyph glyph-name="code" unicode="&#58964;" d="M718.3-126h-587c-48.1 0-87.3 39.2-87.3 87.3V806.6C43.9 854.8 83.1 894 131.2 894h587c48.2 0 87.3-39.2 87.3-87.3v-307.8c0-13.3-10.8-24-24-24s-24 10.8-24 24V806.6c0 21.7-17.6 39.3-39.3 39.3h-587c-21.7 0-39.3-17.6-39.3-39.3v-845.3c0-21.7 17.6-39.3 39.3-39.3h587c21.7 0 39.3 17.6 39.3 39.3v15.1c0 13.3 10.8 24 24 24s24-10.8 24-24v-15.1c0.1-48.1-39.1-87.3-87.2-87.3zM633.7 84c-11.9 0-23.7 4.5-32.8 13.5L421.6 276.9c-9.4 9.4-9.4 24.6 0 33.9 9.4 9.4 24.6 9.4 33.9 0l179.4-179.4L939.1 438c9.4 9.4 24.6 9.4 33.9 0 9.4-9.4 9.4-24.6 0-33.9L666.5 97.5c-9-9-20.9-13.5-32.8-13.5zM590.4 593.2h-349c-13.3 0-24 10.8-24 24 0 13.3 10.8 24 24 24h348.9c13.3 0 24-10.8 24-24 0.1-13.3-10.7-24-23.9-24z"  horiz-adv-x="1024" />

    
    <glyph glyph-name="confirm" unicode="&#58965;" d="M555.4 417.9V867.4c0 10.6-8.6 19.2-19.2 19.2S517 878 517 867.4v-120.8H396.2c-10.6 0-19.2-8.6-19.2-19.2s8.6-19.2 19.2-19.2H517v-289.6c-142.1-7-255.7-124.4-255.7-268.2 0-148.3 120.6-268.9 268.9-268.9S799.1 2 799.1 150.3c0 139.7-107.2 254.8-243.7 267.6z m-25.2-498.1c-127.1 0-230.5 103.4-230.5 230.5s103.4 230.5 230.5 230.5 230.5-103.4 230.5-230.5-103.4-230.5-230.5-230.5z"  horiz-adv-x="1024" />

    
    <glyph glyph-name="invisibie" unicode="&#58966;" d="M1017.61536 563.2c11 16.5 7.3 38.5-7.3 51.3-16.5 12.8-38.5 9.1-51.3-7.3-1.9-1.9-205-241.7-446.9-241.7-234.4 0-446.9 241.7-448.6 243.5-12.8 14.7-36.6 16.5-51.3 3.7-14.6-12.7-16.5-36.5-3.6-51.2 3.7-5.6 47.6-54.9 117.2-109.9l-93.4-97.1c-14.7-14.7-12.8-38.5 1.9-51.3 3.7-7.3 12.8-11 22-11 9.1 0 18.3 3.7 25.7 11l100.7 104.4c47.6-32.9 104.4-64 166.7-86.1l-38.5-130c-5.6-20.1 5.6-40.3 25.7-45.8h11c16.5 0 31.1 11 34.8 27.5l38.5 130c29.2-5.6 60.5-9.1 91.5-9.1 31.1 0 62.3 3.7 91.5 9.1L642.21536 175c3.7-16.5 20.1-27.5 34.8-27.5 3.7 0 7.3 0 9.1 1.9 20.1 5.6 31.1 25.7 25.7 45.8l-38.5 128.2c62.3 22 119.1 53 166.7 86.1L938.81536 307c7.3-7.3 16.5-11 25.7-11 9.1 0 18.3 3.7 25.7 11 14.7 14.7 14.7 36.6 1.9 51.3l-93.4 97c75 54.9 118.9 107.9 118.9 107.9z"  horiz-adv-x="1024" />

    
    <glyph glyph-name="invite" unicode="&#58967;" d="M843.3-128H183.8c-46.7 0-84.8 38-84.8 84.8V810.6C99 857.3 137 895.4 183.8 895.4h659.5c46.8 0 84.8-38 84.8-84.8v-853.8c0-46.8-38-84.8-84.8-84.8zM183.8 847.3c-20.3 0-36.8-16.5-36.8-36.8v-853.8c0-20.3 16.5-36.8 36.8-36.8h659.5c20.3 0 36.8 16.5 36.8 36.8V810.6c0 20.3-16.5 36.8-36.8 36.8H183.8zM545.2 340.2c37.6-5.7 73.5-19.6 105.3-41.2 7.3-4.9 17.3-3 22.2 4.3s3 17.3-4.3 22.2c-22.2 15.1-46.4 26.5-71.5 34.8 50.9 29.5 85.6 83.9 85.6 146.8 0 93.9-76.4 170.3-170.3 170.3S341.9 601 341.9 507.1c0-61 32.5-114.2 80.9-144.3C303.6 327 216.5 216.3 216.5 85.6c0-8.8 7.2-16 16-16s16 7.2 16 16c0 131.6 99.2 240.3 226.8 255.6 11.9-2.7 24.2-4.3 36.9-4.3 11.3 0 22.3 1.2 33 3.3zM373.9 507.1c0 76.2 62 138.3 138.3 138.3s138.3-62 138.3-138.3c0-65.8-46.3-120.7-107.9-134.7-12 1.5-24.2 2.7-36.4 2.7-9.6 0-19.1-0.5-28.4-1.4-59.6 15.5-103.9 69.2-103.9 133.4zM781.3 208h-61.5v61.3c0 8.8-7.2 16-16 16s-16-7.2-16-16V208h-61.5c-8.8 0-16-7.2-16-16s7.2-16 16-16h61.5v-61.3c0-8.8 7.2-16 16-16s16 7.2 16 16V176h61.5c8.8 0 16 7.2 16 16s-7.2 16-16 16z"  horiz-adv-x="1024" />

    
    <glyph glyph-name="new" unicode="&#58968;" d="M572 390.1L889.9 708c7.5 7.5 7.5 19.7 0 27.2s-19.7 7.5-27.2 0l-85.4-85.4-85.4 85.4c-7.5 7.5-19.7 7.5-27.2 0s-7.5-19.7 0-27.2l85.4-85.4-204.8-204.9c-105.4 95.6-268.8 92.8-370.5-8.9C70 304 70 133.4 174.8 28.6s275.4-104.8 380.3 0c98.8 98.8 104.4 256 16.9 361.5zM202 55.8c-89.9 89.9-89.9 236.1 0 325.9 89.9 89.9 236.1 89.9 325.9 0s89.9-236.1 0-325.9c-89.9-89.9-236.1-89.9-325.9 0z"  horiz-adv-x="1024" />

    
    <glyph glyph-name="passwords" unicode="&#58969;" d="M793.1 495.9h-43V627c0 128.5-104.5 233-233 233S284 755.5 284 627v-131h-51c-52.4 0-95-42.6-95-95v-396c0-52.4 42.6-95 95-95h560.1c52.4 0 95 42.6 95 95V401c0 52.3-42.6 94.9-95 94.9zM332 627c0 102 83 185 185 185s185-83 185-185v-131H332V627z m508.1-622.1c0-25.9-21.1-47-47-47H233c-25.9 0-47 21.1-47 47v396c0 25.9 21.1 47 47 47h560.1c25.9 0 47-21.1 47-47v-396zM512 325.3c-30.9 0-56-25.1-56-56 0-22.7 13.6-42.2 33-51-0.4-1.7-1-3.2-1-5v-101.4c0-13.3 10.8-24 24-24 13.3 0 24 10.8 24 24V213.3c0 1.8-0.6 3.4-1 5 19.4 8.8 33 28.2 33 51 0 30.9-25.1 56-56 56z"  horiz-adv-x="1024" />

    
    <glyph glyph-name="phone" unicode="&#58970;" d="M843.3-128H183.8c-46.7 0-84.8 38-84.8 84.8V810.6C99 857.3 137 895.4 183.8 895.4h659.5c46.8 0 84.8-38 84.8-84.8v-853.8c0-46.8-38-84.8-84.8-84.8zM183.8 847.3c-20.3 0-36.8-16.5-36.8-36.8v-853.8c0-20.3 16.5-36.8 36.8-36.8h659.5c20.3 0 36.8 16.5 36.8 36.8V810.6c0 20.3-16.5 36.8-36.8 36.8H183.8zM583.1 42H444c-6.8 0-12.4 5.5-12.4 12.4v23.2c0 6.8 5.5 12.4 12.4 12.4h139.1c6.8 0 12.4-5.5 12.4-12.4v-23.2c0-6.9-5.5-12.4-12.4-12.4z"  horiz-adv-x="1024" />

    
    <glyph glyph-name="public" unicode="&#58971;" d="M590.3 404.9c63 30.3 106.9 94.2 106.9 168.7 0 103.5-84.2 187.8-187.7 187.8-103.5 0-187.8-84.2-187.8-187.8 0-74.5 43.9-138.4 107-168.7-138.1-36.1-240.8-160.8-240.8-310.1V14h643.3v80.8c0 149.3-102.7 274-240.9 310.1z m-238 168.7c0 86.7 70.5 157.2 157.2 157.2 86.6 0 157.2-70.5 157.2-157.2 0-86.6-70.5-157.2-157.2-157.2-86.7 0-157.2 70.6-157.2 157.2z m448.3-529.1H218.4v50.3c0 160.5 130.6 291.1 291.1 291.1s291.1-130.6 291.1-291.1v-50.3zM815.4 426.4c39.1 22.9 66.6 63.5 66.6 112C882 611 822.9 670 750.4 670c-8.5 0-15.3-6.8-15.3-15.3s6.8-15.3 15.3-15.3c55.7 0 101.1-45.4 101.1-101.1s-45.4-101.1-101.1-101.1c-8.5 0-15.3-6.8-15.3-15.3s6.8-15.3 15.3-15.3c105.5 0 191.4-85.9 191.4-191.5V134c0-8.5 6.8-15.3 15.3-15.3s15.3 6.8 15.3 15.3v81.1c0 99.8-66.4 183.3-157 211.3zM295.4 421.9c0 8.5-6.8 15.3-15.3 15.3-55.7 0-101.1 45.4-101.1 101.1s45.4 101.1 101.1 101.1c8.5 0 15.3 6.8 15.3 15.3s-6.8 15.3-15.3 15.3c-72.6 0-131.6-59.1-131.6-131.6 0-48.4 27.6-89.1 66.6-111.9-90.6-28-157-111.5-157-211.1v-81.2c0-8.5 6.8-15.3 15.3-15.3s15.3 6.8 15.3 15.3v81.2c0 105.5 85.9 191.4 191.5 191.4 8.4-0.1 15.2 6.7 15.2 15.1z"  horiz-adv-x="1024" />

    
    <glyph glyph-name="users" unicode="&#58972;" d="M539.1 316.6c92.7 44.6 157 139.1 157 248.7 0 152.2-123.8 276-276 276s-276-123.8-276-276c0-113 68.4-210.3 165.9-252.9C153.5 261 40.2 113.9 40.2-59.4c0-13.3 10.8-24 24-24s24 10.8 24 24C88.2 129.9 242.3 284 431.7 284s343.4-154.1 343.4-343.4c0-13.3 10.8-24 24-24s24 10.8 24 24c0 178.5-120.3 329.2-284 376zM192 565.3c0 125.7 102.3 228 228 228s228-102.3 228-228-102.3-228-228-228-228 102.3-228 228zM800.1 341.1c61.5 30.2 104.1 93.3 104.1 166.4 0 102.2-83.2 185.4-185.4 185.4-8.8 0-16-7.2-16-16s7.2-16 16-16c84.6 0 153.4-68.8 153.4-153.4s-68.8-153.4-153.4-153.4c-8.8 0-16-7.2-16-16s7.2-16 16-16c127.3 0 230.9-103.6 230.9-230.9 0-8.8 7.2-16 16-16s16 7.2 16 16c0.1 116.6-76.3 215.6-181.6 249.9z"  horiz-adv-x="1024" />

    
    <glyph glyph-name="return" unicode="&#58973;" d="M783.520453-128c-7.597774 0-15.195548 2.699209-21.193791 8.197598L261.273455 338.963194c-10.896808 9.8971-17.394904 24.292883-17.494875 39.28849-0.099971 15.095577 6.098213 29.691301 17.094992 39.988285L761.926779 889.201992C774.62306 900.998536 794.417261 900.498682 806.413746 887.702431c11.896515-12.59631 11.29669-32.490481-1.299619-44.386996L329.953334 397.146149c-10.396954-9.79713-10.296983-26.392268 0.199941-35.989457l474.560969-434.572683c12.796251-11.796544 13.695988-31.690716 1.999414-44.386996-6.198184-6.798008-14.795665-10.197013-23.193205-10.197013z"  horiz-adv-x="1024" />

    
    <glyph glyph-name="weixin" unicode="&#58974;" d="M498.8 541.4c26.3 0 43.9 17.1 43.9 42.5 0 25.7-17.6 42.3-43.9 42.3-26.4 0-52.8-16.6-52.8-42.3 0-25.4 26.5-42.5 52.8-42.5z m-245.7 84.8c-26.3 0-53-16.6-53-42.3 0-25.4 26.6-42.5 53-42.5 26.2 0 43.8 17.1 43.8 42.5 0 25.7-17.6 42.3-43.8 42.3zM875.5 86c-5.3-3.9-7.6-10.6-5.7-16.8l15.1-48.7-62.1 32.9c-2.4 1.3-5 1.9-7.7 1.9-1.3 0-2.6-0.2-3.9-0.5-33.3-8.2-67.8-16.5-101.3-16.5-155.9 0-282.8 103.7-282.8 231.1S554 500.5 709.9 500.5c152.9 0 282.1-105.8 282.1-231.1 0-63.5-41.4-128.7-116.5-183.4zM398.6 209.5c-10.4-0.9-21-1.3-31.4-1.3-35.3 0-65.2 5.9-99.8 12.8l-20.1 3.9c-3.4 0.7-7.1 0.2-10.3-1.3l-88.3-42.8 22.9 66.7c2.2 6.5-0.2 13.7-6 17.6C77 325 32 397.9 32 481.8c0 150.8 150.3 273.6 335.1 273.6 163.4 0 308-96.2 337.9-224.1-171.3-2.2-309.9-118.7-309.9-261.9 0-20.8 3.3-41 8.8-60.4-1.7 0.3-3.5 0.7-5.3 0.5z m625.4 59.9c0 134.4-128.8 249-287 260.9 0.2 1.7 0.3 3.4-0.1 5.1-31.7 143.1-190.7 251-369.8 251C164.7 786.4 0 649.7 0 481.8c0-90.1 47.5-171.3 137.6-235.3l-31.4-91.3c-2-5.9-0.2-12.5 4.7-16.6 3-2.5 6.7-3.8 10.5-3.8 2.4 0 4.9 0.5 7.2 1.6l117.9 57.1 14.5-2.9c36.3-7.2 67.6-13.5 106.2-13.5 11.4 0 22.9 0.5 34.2 1.4 4.6 0.4 8.4 2.6 11.1 5.8C454.9 81.5 572 7.2 709.8 7.2c35.3 0 71 8.2 103.1 16l90.8-48.1c2.4-1.3 5.1-1.9 7.7-1.9 3.6 0 7.2 1.2 10 3.4 5.1 4 7.1 10.5 5.3 16.5l-23.2 74.7c77.9 59.5 120.5 130.7 120.5 201.6z m-446.1 76.3c0-17.1 17.6-34 35.1-34 26.4 0 43.8 16.9 43.8 34 0 17-17.4 34.1-43.8 34.1-17.6 0-35.1-17.1-35.1-34.1z m193.2 0c0-17.1 17.6-34 34.9-34 26.3 0 44.1 16.9 44.1 34 0 17-17.7 34.1-44.1 34.1-17.3 0-34.9-17.1-34.9-34.1z"  horiz-adv-x="1024" />

    
    <glyph glyph-name="visible" unicode="&#58975;" d="M512.2 61.3c-278.2 0-497.6 295-506.8 307.1-6.9 9.2-6.9 21.9 0 31.2 9.2 12.7 228.6 307.1 506.8 307.1s497.6-295 506.8-307.1c6.9-9.2 6.9-21.9 0-31.2-9.2-12.7-228.6-307.1-506.8-307.1zM60.2 384c48.5-59.5 234.9-270.1 452-270.1s403.5 210.7 452 270.1c-48.5 59.5-234.9 270.1-452 270.1S108.7 443.5 60.2 384zM581.5 201.6c-101.6-38.7-215.3 12.7-254 114.3-38.7 101.6 12.7 215.3 114.3 254 62.9 23.7 132.8 14.4 187-26 11.5-8.7 13.9-24.8 5.2-36.9-8.7-11.5-24.8-13.9-36.9-5.2-39.8 29.4-91.2 36.9-137.4 19-74.5-28.3-112-112-83.7-185.9 28.3-74.5 112-112 185.9-83.7 58.9 22.5 96.4 79.7 92.9 142-0.6 14.4 10.4 26.6 24.8 27.7 14.4 0.6 26.6-10.4 27.7-24.8 5.8-86.6-45.6-164.5-125.8-194.5z"  horiz-adv-x="1024" />

    
    <glyph glyph-name="zhifubao" unicode="&#58976;" d="M864.4 171.4c39.8 63.2 62.8 138.8 62.8 219.4 0 229.3-185.9 414.9-415.2 414.9S96.8 619.8 96.8 390.5c0-229.3 185.9-415.2 415.2-415.2 62.3 0 121.4 14 174.5 38.6 1.4 0.7 2.7 1.3 3.1 1.5 6.4 3 10.9 9.5 10.9 17.1 0 10.4-8.4 18.8-18.8 18.8-3.7 0-10-2.8-10-2.8s-0.2-0.1-0.1 0C623.1 25.8 569 13.1 512 13.1c-208.5 0-377.4 168.9-377.4 377.4 0 208.4 169 377.4 377.4 377.4s377.4-169 377.4-377.4c0-66.7-17.3-129.3-47.6-183.6-0.2 0-0.4 0.1-0.5 0.1-65.5 34.8-190.6 104.9-243.4 133.7 34.7 50.5 46.9 77.3 73.8 123 4.4 7.5 2.3 13.8-1 18.1-5.2 6.6-18.1 6.1-18.1 6.1H535v37.8h172.9s16 2.5 16 19.8c0 17.4-16 18.3-16 18.3H535v60.5s-1.1 14.5-18.5 14.5-19.5-14.6-19.5-14.6v-60.5H324.1s-14.1-0.9-14.1-18.3c0-17.4 14.1-19.8 14.1-19.8H497v-37.8H361s-14.9-1-14.9-18.4 14.9-19.6 14.9-19.6h249.7c-18.1-36.1-31.8-65.5-52.1-91.4-4.3 2.5-61.5 26.3-127.8 37.5-94.6 14.9-156.3-32-155.8-100.8 0.2-36.2 13.5-100.8 101.9-107.6 95.4-10.9 155.2 45.5 193.9 115.2 53.4-22.1 197.5-107.8 254.6-141.4 0.4-0.2 10.3-5.2 15.7-5.2 8.5 0.1 16.2 3.1 23.3 15.3m-482.8 53.9c-105.9 11.1-92.4 162.4 43.1 135.7 46.4-8.5 79.1-19.2 113-36-50.8-82.7-99.1-104.7-156.1-99.7m0 0z"  horiz-adv-x="1024" />

    
    <glyph glyph-name="oneclient" unicode="&#58977;" d="M865.1 18.8h-256c-17.6 0-32-14.4-32-32s14.4-32 32-32h256c17.6 0 32 14.4 32 32s-14.4 32-32 32zM768.1 560.4c0 141.4-114.6 256-256 256s-256-114.6-256-256c0-91.8 48.5-172.1 121.1-217.3C223.6 291.9 110.1 155.6 95-13.7c-1.6-17.6 11.4-33.1 29-34.7 1-0.1 1.9-0.1 2.9-0.1 16.4 0 30.4 12.5 31.8 29.2 16 179.8 171.2 320.6 353.3 320.6 5.3 0 10 1.6 14.4 3.8 134.7 7.5 241.7 118.8 241.7 255.3z m-256-192c-105.9 0-192 86.1-192 192s86.1 192 192 192 192-86.1 192-192-86.2-192-192-192zM819.8 231.4l-8.7 9.1c-12.4 12.6-32.7 12.8-45.3 0.4-12.6-12.4-12.8-32.6-0.4-45.3l7.5-7.8c53.3-57.4 85.2-128.7 92.3-206.1 1.5-16.6 15.5-29.1 31.8-29.1 1 0 2 0 2.9 0.1 17.6 1.6 30.6 17.2 29 34.8-8.3 91.6-46 175.9-109.1 243.9z"  horiz-adv-x="1024" />

    
    <glyph glyph-name="earrecord" unicode="&#58978;" d="M744.6 646.9H219.3c-13.9 0-25.3-11.4-25.3-25.3v-13.3c0-13.9 11.4-25.3 25.3-25.3h525.3c13.9 0 25.3 11.4 25.3 25.3v13.3c0 13.9-11.4 25.3-25.3 25.3zM744.6 468.8H219.3c-13.9 0-25.3-11.4-25.3-25.3v-13.3c0-13.9 11.4-25.3 25.3-25.3h525.3c13.9 0 25.3 11.4 25.3 25.3v13.3c0 13.9-11.4 25.3-25.3 25.3zM424.6 290.7H219.3c-13.9 0-25.3-11.4-25.3-25.3v-13.3c0-13.9 11.4-25.3 25.3-25.3h205.3c13.9 0 25.3 11.4 25.3 25.3v13.3c0.1 13.9-11.3 25.3-25.3 25.3zM595.4-63.9h-470c-52.9 0-96 43.1-96 96V800c0 52.9 43.1 96 96 96h88.3c17.7 0 32-14.3 32-32s-14.3-32-32-32h-88.3c-17.7 0-32-14.4-32-32v-767.9c0-17.6 14.3-32 32-32h470.1c17.7 0 32-14.3 32-32s-14.4-32-32.1-32zM902.5 258.7c-17.7 0-32 14.3-32 32V800c0 17.6-14.3 32-32 32h-88c-17.7 0-32 14.3-32 32s14.3 32 32 32h88c52.9 0 96-43.1 96-96v-509.3c0-17.6-14.3-32-32-32zM597.9 832h-232c-17.7 0-32 14.3-32 32s14.3 32 32 32h232c17.7 0 32-14.3 32-32s-14.3-32-32-32zM819.5 200.8c79.4 0 144-66.6 144-148.4 0-81.8-64.6-148.4-144-148.4s-144 66.6-144 148.4c0 81.8 64.6 148.4 144 148.4m0 32c-97.2 0-176-80.8-176-180.4 0-99.6 78.8-180.4 176-180.4s176 80.8 176 180.4c-0.1 99.6-78.9 180.4-176 180.4zM819.5 105.3c28 0 50.8-23.7 50.8-52.9s-22.8-52.9-50.8-52.9c-28 0-50.8 23.7-50.8 52.9 0 29.1 22.7 52.9 50.8 52.9m0 32c-45.7 0-82.8-38-82.8-84.9 0-46.9 37.1-84.9 82.8-84.9 45.7 0 82.8 38 82.8 84.9 0 46.9-37.1 84.9-82.8 84.9z"  horiz-adv-x="1024" />

    
    <glyph glyph-name="payment_icon" unicode="&#58979;" d="M881.641736 46.948745c43.58723 20.394025 73.878356 64.781021 73.878356 116.365909 0 70.879235-57.083276 128.362394-127.462658 128.362394S700.494806 234.193889 700.494806 163.314654c0-51.584887 30.291126-95.971883 73.878356-116.365909-75.277946-22.793322-130.461779-92.172996-132.561164-174.848774h372.290931c-2.099385 82.675779-57.283218 152.055453-132.461193 174.848774zM10.297013-111.004979v-16.995021h555.237332c6.398126 36.989163 20.194084 71.379088 39.988285 101.570243H94.372381c-46.486381 0.099971-84.075369-37.788929-84.075368-84.575222zM683.199873 58.345407c-2.399297 7.897686-2.299326 7.397833-4.698623 15.295519H440.670926V276.781412h239.729767c19.094406 25.192619 44.386996 45.286732 73.678415 58.082983 4.898565 2.199356 3.299033 9.597188-2.099385 9.597189H115.066318v-338.50083h510.850337c16.695109 19.894172 35.989456 37.389046 57.283218 52.384653z m-293.014156 15.395489h-207.93908V276.781412h208.039051v-203.040516zM68.97982 379.751245c28.491653 0 52.984477 17.494875 63.281461 42.387582 10.396954-24.892707 34.789808-42.387582 63.28146-42.387582s52.984477 17.494875 63.281461 42.387582c10.396954-24.892707 34.789808-42.387582 63.28146-42.387582s52.984477 17.494875 63.281461 42.387582c10.396954-24.892707 34.789808-42.387582 63.28146-42.387582s52.984477 17.494875 63.281461 42.387582c10.396954-24.892707 34.789808-42.387582 63.28146-42.387582s52.984477 17.494875 63.281461 42.387582c10.396954-24.892707 34.789808-42.387582 63.28146-42.387582s52.984477 17.494875 63.281461 42.387582c10.396954-24.892707 34.789808-42.387582 63.28146-42.387582s52.984477 17.494875 63.281461 42.387582c10.396954-24.892707 34.789808-42.387582 63.28146-42.387582 37.8889 0 68.679879 30.990921 68.679879 69.079762 0 7.097921-1.39959 13.795958-3.399004 20.294054-0.199941 3.498975-1.799473 7.597774-4.898565 11.996485-3.399004 6.298155-7.397833 12.196427-12.496339 17.194963l-95.072146 130.161866c-5.298448 7.197891-16.79508 12.896222-25.892415 12.896222H642.111911v68.180026h61.282046c37.489017 0 68.279996 30.691008 68.279996 68.279996V827.520062C771.673953 865.009079 740.982944 895.800059 703.393957 895.800059H335.601708c-37.489017 0-68.279996-30.691008-68.279996-68.279997v-49.685443c0-37.489017 30.691008-68.279996 68.279996-68.279996H396.983725v-68.180026H142.558264c-9.097335 0-20.693937-5.698331-25.892414-12.896222L21.993586 499.016304c-6.398126-6.098213-11.596603-13.396075-15.295519-21.593674l-0.299912-0.599824c-0.299912-0.799766-0.599824-1.499561-0.899737-2.299327-0.399883-0.999707-0.699795-1.999414-0.899736-2.999121C2.099414 464.326467 0.499883 456.828663 0.499883 448.831007c-0.099971-38.088841 30.591038-69.079762 68.479937-69.079762z m378.389144 329.803378h144.257737v-68.180026H447.368964v68.180026zM315.907478 785.232451l16.595138 1.599532c0.999707-5.59836 2.999121-9.697159 6.098214-12.296398 2.999121-2.599239 7.197891-3.898858 12.296397-3.898857 5.498389 0 9.597188 1.199649 12.396369 3.498974 2.79918 2.299326 4.19877 5.098506 4.19877 8.197599 0 1.999414-0.599824 3.698916-1.799473 5.098506s-3.199063 2.599239-6.098214 3.698916c-1.999414 0.699795-6.498096 1.899444-13.596016 3.698917-9.097335 2.299326-15.49546 5.098506-19.194377 8.39754-5.198477 4.698623-7.797716 10.396954-7.797716 17.094991 0 4.298741 1.199649 8.39754 3.598946 12.096456 2.399297 3.798887 5.898272 6.598067 10.496925 8.597482s10.097042 2.999121 16.595138 2.999121c10.596895 0 18.494582-2.299326 23.893-6.99795 5.298448-4.698623 8.097628-10.896808 8.39754-18.694523l-16.995021-0.799766c-0.699795 4.398711-2.299326 7.497803-4.698624 9.397247-2.399297 1.899444-5.998243 2.899151-10.796837 2.899151-4.898565 0-8.797423-0.999707-11.596602-3.099092-1.799473-1.299619-2.699209-3.099092-2.699209-5.298448 0-1.999414 0.799766-3.698916 2.499267-5.198477 2.099385-1.799473 7.397833-3.698916 15.595431-5.698331s14.395782-3.998828 18.394611-6.098213c3.998828-2.099385 7.097921-4.998536 9.297277-8.597481 2.199356-3.698916 3.399004-8.197598 3.399004-13.496046 0-4.898565-1.299619-9.397247-3.998829-13.695988-2.699209-4.19877-6.498096-7.397833-11.396661-9.497217-4.898565-2.099385-10.996778-3.099092-18.29464-3.099092-10.696866 0-18.794494 2.499268-24.492824 7.397832-5.798301 5.098506-9.197305 12.296398-10.296984 21.793615zM422.276316 757.640535V842.415699h16.995021V809.025481h33.290247V842.415699h16.995021v-84.775164h-16.995021v37.089134h-33.290247v-37.089134h-16.995021zM527.245563 799.528263c0 8.597481 1.299619 15.895343 3.798887 21.793615 1.899444 4.298741 4.498682 8.197598 7.897686 11.596603 3.299033 3.399004 6.897979 5.998243 10.896808 7.597774 5.298448 2.199356 11.29669 3.399004 18.194669 3.399004 12.396368 0 22.293469-3.898858 29.791272-11.596602S608.921634 813.724104 608.921634 799.928146c0-13.695988-3.698916-24.392854-11.096749-32.090598-7.397833-7.697745-17.294933-11.596603-29.59133-11.596603-12.496339 0-22.49341 3.898858-29.891243 11.596603-7.397833 7.597774-11.096749 18.19467-11.096749 31.690715z m17.494874 0.499854c0-9.597188 2.199356-16.89505 6.598067-21.793615 4.398711-4.998536 9.997071-7.397833 16.79508-7.397833 6.798008 0 12.296398 2.499268 16.695109 7.397833 4.398711 4.898565 6.498096 12.296398 6.498096 22.093527 0 9.697159-2.099385 16.995021-6.298155 21.793615-4.19877 4.798594-9.79713 7.197891-16.89505 7.197891-6.99795 0-12.69628-2.399297-16.995021-7.297862-4.19877-4.898565-6.398126-12.196427-6.398126-21.993556zM645.710856 757.640535V842.415699h27.292004c10.396954 0 17.094992-0.399883 20.194084-1.29962 4.798594-1.299619 8.897393-3.998828 12.096456-8.297569 3.299033-4.298741 4.898565-9.79713 4.898565-16.495167 0-5.198477-0.899736-9.597188-2.79918-13.096163-1.899444-3.598946-4.298741-6.298155-7.197891-8.39754-2.899151-1.999414-5.798301-3.399004-8.797423-3.998829-4.098799-0.799766-9.997071-1.199649-17.694816-1.199648h-11.096749v-31.990628h-16.89505zM662.805848 828.019916v-23.992971h9.297276c6.698038 0 11.19672 0.399883 13.496046 1.299619 2.299326 0.899736 3.998828 2.299326 5.298448 4.19877 1.299619 1.899444 1.899444 4.098799 1.899443 6.598067 0 3.099092-0.899736 5.59836-2.699209 7.597774s-4.098799 3.299033-6.798008 3.798887c-1.999414 0.399883-6.098213 0.599824-12.196427 0.599825h-8.297569z"  horiz-adv-x="1024" />

    
    <glyph glyph-name="twoclient" unicode="&#58980;" d="M862.91542 560.4c0 141.4-114.6 256-256 256s-256-114.6-256-256c0-91.8 48.5-172.1 121.1-217.3-153.5-51.2-267.1-187.5-282.1-356.8-1.6-17.6 11.4-33.1 29-34.7 1-0.1 1.9-0.1 2.9-0.1 16.4 0 30.4 12.5 31.8 29.2 16 179.8 171.2 320.6 353.3 320.6 5.3 0 10 1.6 14.4 3.8 134.7 7.5 241.6 118.8 241.6 255.3z m-256-192c-105.9 0-192 86.1-192 192s86.1 192 192 192 192-86.1 192-192-86.1-192-192-192zM914.61542 231.4l-8.7 9.1c-12.4 12.6-32.7 12.8-45.3 0.4-12.6-12.4-12.8-32.6-0.4-45.2l7.5-7.8c53.3-57.4 85.2-128.7 92.3-206.1 1.5-16.6 15.5-29.1 31.8-29.1 1 0 2 0 2.9 0.1 17.6 1.6 30.6 17.2 29 34.8-8.2 91.5-46 175.8-109.1 243.8zM368.01542 370.2c-93.4 0-169.4 76-169.4 169.4S274.61542 709 368.01542 709v56.5c-124.7 0-225.9-101.1-225.9-225.9 0-81 42.8-151.8 106.8-191.7C113.61542 302.7 13.41542 182.5 0.11542 33.1c-1.4-15.5 10.1-29.2 25.6-30.6 0.8-0.1 1.7-0.1 2.5-0.1 14.5 0 26.8 11.1 28.1 25.7C70.51542 186.8 207.41542 311 368.01542 311v59.2z"  horiz-adv-x="1024" />

    
    <glyph glyph-name="moneysoon" unicode="&#58981;" d="M436.4-128c-7.9 0-15.8 3.1-21.7 9.3-11.5 12-11.1 31.1 0.9 42.6L895.5 384l-480 460.1c-12 11.5-12.4 30.6-0.9 42.6s30.6 12.4 42.6 0.9l502.6-481.9c5.9-5.7 9.3-13.5 9.3-21.7s-3.4-16.1-9.3-21.7l-502.6-481.9c-5.8-5.6-13.3-8.4-20.8-8.4zM85-37.1c-7.8 0-15.6 3-21.4 9-11.7 11.8-11.6 30.9 0.3 42.6l375.4 370.1L63.8 754.7c-11.9 11.7-12 30.8-0.3 42.6 11.7 11.9 30.7 12 42.6 0.3L503.2 406c5.7-5.7 9-13.4 9-21.4 0-8.1-3.2-15.8-9-21.4L106.1-28.4c-5.8-5.8-13.5-8.7-21.1-8.7z"  horiz-adv-x="1024" />

    
    <glyph glyph-name="contacts" unicode="&#58982;" d="M512.1 853.3c258.8 0 469.3-210.5 469.3-469.3S770.9-85.3 512.1-85.3 42.8 125.2 42.8 384 253.3 853.3 512.1 853.3m0 42.7C229.3 896 0.1 666.8 0.1 384s229.2-512 512-512 512 229.2 512 512S794.9 896 512.1 896zM604.1 364.6c59.6 32.6 100 95.8 100 168.5 0 106-86 192-192 192s-192-86-192-192c0-72.7 40.4-136 100-168.5-107.8-37.5-185.4-138.8-185.4-257.8 0-11.8 9.6-21.3 21.3-21.3h378.7c11.8 0 21.3 9.5 21.3 21.3s-9.5 21.3-21.3 21.3H278.4c11 117.3 111.6 209.5 233.7 209.5 129.4 0 234.7-103.6 234.7-230.9 0-11.8 9.5-21.3 21.3-21.3s21.3 9.5 21.3 21.3c0 119.1-77.5 220.4-185.3 257.9zM362.8 533.2c0 82.3 67 149.3 149.3 149.3s149.3-67 149.3-149.3-67-149.3-149.3-149.3-149.3 66.9-149.3 149.3z"  horiz-adv-x="1024" />

    
    <glyph glyph-name="qingchu" unicode="&#58983;" d="M981.9 583.4c-25.7 60.9-62.6 115.5-109.5 162.4-46.9 46.9-101.6 83.8-162.4 109.5C647 882 580 895.5 511.1 895.5 442.1 895.5 375.2 882 312.2 855.3c-60.9-25.7-115.5-62.6-162.4-109.5-47-46.9-83.9-101.6-109.6-162.4-26.7-63-40.2-130-40.2-198.9 0-69 13.5-135.9 40.2-198.9 25.7-60.9 62.6-115.5 109.5-162.4 46.9-46.9 101.6-83.8 162.4-109.5 63-26.7 130-40.2 198.9-40.2 69 0 135.9 13.5 198.9 40.2 60.9 25.7 115.5 62.6 162.4 109.5C919.4 70 956.2 124.7 981.9 185.5c26.7 63 40.2 129.9 40.2 198.9s-13.5 136-40.2 199zM511.1-70.8c-251 0-455.3 204.2-455.3 455.3 0 251 204.2 455.3 455.3 455.3 251 0 455.3-204.2 455.3-455.3S762.1-70.8 511.1-70.8z m255.6 710.9c-12.7 12.7-33.4 12.7-46.1 0L511.1 430.6 301.6 640.1c-12.7 12.7-33.4 12.7-46.2 0-12.7-12.7-12.7-33.4 0-46.1l209.4-209.4L255.5 175c-12.7-12.7-12.7-33.4 0-46.2 6.4-6.4 14.7-9.6 23.1-9.6 8.4 0 16.7 3.2 23.1 9.6l209.4 209.4 209.4-209.4c6.4-6.4 14.7-9.6 23.1-9.6 8.4 0 16.7 3.2 23.1 9.6 12.7 12.7 12.7 33.4 0 46.2L557.2 384.5l209.4 209.4c12.8 12.7 12.8 33.4 0.1 46.2z m0 0"  horiz-adv-x="1024" />

    


  </font>
</defs>
</svg>
